<?xml version="1.0" standalone="no"?>
<!DOCTYPE svg PUBLIC "-//W3C//DTD SVG 20010904//EN"
 "http://www.w3.org/TR/2001/REC-SVG-20010904/DTD/svg10.dtd">
<svg version="1.0" xmlns="http://www.w3.org/2000/svg"
 width="200.000000pt" height="200.000000pt" viewBox="0 0 200.000000 200.000000"
 preserveAspectRatio="xMidYMid meet">

<g transform="translate(0.000000,200.000000) scale(0.100000,-0.100000)"
fill="#313132" stroke="none">
<path d="M0 1000 l0 -1000 1000 0 1000 0 0 1000 0 1000 -1000 0 -1000 0 0
-1000z m392 145 l3 -375 164 245 164 244 144 -212 c79 -117 186 -274 238 -350
52 -76 95 -140 95 -142 0 -2 -14 -25 -32 -50 -30 -42 -35 -45 -77 -45 l-46 1
-95 142 c-202 300 -233 342 -244 323 -6 -9 -77 -118 -159 -241 l-147 -225
-100 0 -100 0 0 530 0 530 95 0 95 0 2 -375z m767 131 l165 -243 47 71 c25 39
91 139 145 222 55 82 104 159 110 170 10 16 24 19 113 22 l101 3 0 -531 0
-530 -95 0 -95 0 -2 378 -3 377 -39 -60 c-21 -33 -49 -76 -61 -95 -12 -19 -43
-66 -67 -105 -109 -171 -152 -235 -157 -234 -3 0 -113 157 -244 349 l-237 350
32 50 c32 47 35 50 78 49 l45 0 164 -243z"/>
</g>
</svg>
