<?xml version="1.0" standalone="no"?>
<!DOCTYPE svg PUBLIC "-//W3C//DTD SVG 20010904//EN"
 "http://www.w3.org/TR/2001/REC-SVG-20010904/DTD/svg10.dtd">
<svg version="1.0" xmlns="http://www.w3.org/2000/svg"
 width="200.000000pt" height="200.000000pt" viewBox="0 0 200.000000 200.000000"
 preserveAspectRatio="xMidYMid meet">

<g transform="translate(0.000000,200.000000) scale(0.100000,-0.100000)"
fill="#313132" stroke="none">
<path d="M0 1000 l0 -1000 1000 0 1000 0 0 1000 0 1000 -1000 0 -1000 0 0
-1000z m870 535 l0 -235 -50 0 -50 0 0 235 0 235 50 0 50 0 0 -235z m-387 201
c59 -20 80 -47 80 -101 0 -55 -25 -84 -89 -103 -75 -22 -158 -8 -201 36 -34
34 -32 100 5 134 50 46 131 60 205 34z m237 -211 l0 -225 -45 0 c-25 0 -45 5
-45 10 0 6 -25 10 -55 10 l-55 0 0 35 0 35 55 0 55 0 0 180 0 180 45 0 45 0 0
-225z m890 185 l0 -40 -195 0 c-188 0 -195 -1 -195 -20 0 -19 7 -20 190 -20
l190 0 0 -40 0 -40 -190 0 c-183 0 -190 -1 -190 -20 0 -19 7 -20 200 -20 l200
0 0 -40 0 -40 -250 0 -250 0 0 160 0 160 245 0 245 0 0 -40z m-1010 -250 l0
-40 -70 0 -70 0 0 -60 0 -60 -50 0 -50 0 0 55 0 55 -69 0 c-73 0 -81 5 -81 56
l0 23 148 4 c81 1 168 4 195 5 l47 2 0 -40z m1120 -115 l0 -35 -150 0 -150 0
0 -65 0 -65 -50 0 -50 0 0 65 0 65 -150 0 -150 0 0 35 0 35 350 0 350 0 0 -35z
m-1260 -95 c0 -19 7 -20 155 -20 148 0 155 1 155 20 0 17 7 20 50 20 l50 0 0
-120 0 -120 -255 0 -255 0 0 120 0 120 50 0 c43 0 50 -3 50 -20z m760 -55 l0
-65 200 0 200 0 0 -40 0 -40 -250 0 -250 0 0 105 0 105 50 0 50 0 0 -65z m420
-340 l0 -145 60 0 60 0 0 -40 0 -40 -60 0 -60 0 0 -190 0 -190 -45 0 -45 0 0
375 0 375 45 0 45 0 0 -145z m-304 76 c64 -29 104 -88 116 -171 12 -82 -2
-202 -26 -229 -9 -10 -16 -22 -17 -27 -1 -18 -57 -54 -103 -66 -91 -24 -175
19 -219 112 -32 65 -31 215 0 280 49 103 152 145 249 101z m-506 -176 l0 -175
-95 0 -95 0 0 -75 0 -75 155 0 155 0 0 -40 0 -40 -350 0 -350 0 0 40 0 40 150
0 150 0 0 75 0 75 -95 0 -95 0 0 175 0 175 235 0 235 0 0 -175z"/>
<path d="M351 1656 l-22 -24 27 -21 c15 -11 39 -21 53 -21 31 0 71 25 71 45 0
21 -40 45 -75 45 -20 0 -40 -9 -54 -24z"/>
<path d="M460 1130 c0 -19 7 -20 155 -20 148 0 155 1 155 20 0 19 -7 20 -155
20 -148 0 -155 -1 -155 -20z"/>
<path d="M1225 848 c-25 -14 -37 -32 -52 -83 -45 -146 46 -309 133 -237 76 63
76 251 0 314 -24 20 -52 22 -81 6z"/>
<path d="M450 755 l0 -95 145 0 145 0 0 95 0 95 -145 0 -145 0 0 -95z"/>
</g>
</svg>
